# xmcd CD database file
#
# Track frame offsets:
#	150
#	14302
#	29908
#	45658
#	63288
#	81690
#	98001
#	114353
#	133000
#	147845
#	164449
#	182703
#	196967
#	214748
#	231288
#	250260
#	268264
#
# Disc length: 3799 seconds
#
# Revision: 0
# Processed by: cddbd v1.4PL0 Copyright (c) Steve Scherf et al.
# Submitted via: CDex 1.50
#
DISCID=fb0ed511
DTITLE=Westlife - The Gratst Hits Vol.2
DYEAR=2002
DGENRE=New Age
TTITLE0=Dreams come true
TTITLE1=Promise(Drive)
TTITLE2=Don't let me go
TTITLE3=I'll be there
TTITLE4=Angels wings
TTITLE5=What becomes of the broken hearted
TTITLE6=You make my free
TTITLE7=I wanna grow old with you
TTITLE8=Love crime
TTITLE9=If I let you go
TTITLE10=Close
TTITLE11=Somebody needs you
TTITLE12=Soledad
TTITLE13=Puzzle of my heart
TTITLE14=Don't say it's to late
TTITLE15=Walk away
TTITLE16=When you come around
EXTD=YEAR: 2002
EXTT0=
EXTT1=
EXTT2=
EXTT3=
EXTT4=
EXTT5=
EXTT6=
EXTT7=
EXTT8=
EXTT9=
EXTT10=
EXTT11=
EXTT12=
EXTT13=
EXTT14=
EXTT15=
EXTT16=
PLAYORDER=
